<?xml version="1.0" encoding="utf-8"?>
<!-- Generator: Adobe Illustrator 18.0.0, SVG Export Plug-In . SVG Version: 6.00 Build 0)  -->
<!DOCTYPE svg PUBLIC "-//W3C//DTD SVG 1.1//EN" "http://www.w3.org/Graphics/SVG/1.1/DTD/svg11.dtd">
<svg version="1.1" id="Calque_1" xmlns="http://www.w3.org/2000/svg" xmlns:xlink="http://www.w3.org/1999/xlink" x="0px" y="0px"
	 viewBox="0 0 10 10" enable-background="new 0 0 10 10" xml:space="preserve">
<g display="none">
	<path display="inline" d="M6.2,1.7c-0.1,0-0.1,0-0.2,0L2.9,3.5H1.7c-0.1,0-0.2,0.1-0.2,0.2v2.5c0,0.1,0.1,0.2,0.2,0.2h1.2L6,8.2
		h0.1h0.1c0.1,0,0.1-0.1,0.1-0.2V1.9C6.3,1.8,6.2,1.7,6.2,1.7z M1.9,3.9h0.9V6H1.9V3.9z M5.9,7.7L3.2,6.1V3.8l2.7-1.6V7.7z"/>
</g>
<path display="none" d="M5.4,5l3.2-3.2c0.1-0.1,0.1-0.2,0-0.3s-0.2-0.1-0.3,0L5.1,4.8L1.9,1.6c-0.1-0.1-0.2-0.1-0.3,0
	s-0.1,0.2,0,0.3L4.8,5L1.7,8.2c-0.1,0.1-0.1,0.2,0,0.3l0.1,0.1c0,0,0.1,0,0.1-0.1l3.2-3.2l3.2,3.2l0.1,0.1c0,0,0.1,0,0.1-0.1
	c0.1-0.1,0.1-0.2,0-0.3L5.4,5z"/>
<line display="none" fill="none" stroke="#000000" stroke-width="0.4" stroke-linecap="round" stroke-miterlimit="10" x1="8.5" y1="1.7" x2="1.8" y2="8.4"/>
<path d="M6.1,1.1c-0.1,0-0.2,0-0.2,0L2.2,3.3H0.8c-0.1,0-0.2,0.1-0.2,0.2v3c0,0.1,0.1,0.2,0.2,0.2h1.4l3.7,2.2c0,0,0.1,0,0.1,0
	c0,0,0.1,0,0.1,0c0.1,0,0.1-0.1,0.1-0.2V1.3C6.2,1.2,6.2,1.1,6.1,1.1z M1,3.7h1v2.5H1V3.7z M5.8,8.3l-3.3-2V3.6l3.3-2V8.3z"/>
<g>
	
		<line fill="none" stroke="#000000" stroke-width="0.4" stroke-linecap="round" stroke-miterlimit="10" x1="8.6" y1="1.6" x2="1.7" y2="8.4"/>
	
		<line fill="none" stroke="#000000" stroke-width="0.4" stroke-linecap="round" stroke-miterlimit="10" x1="8.6" y1="8.4" x2="1.7" y2="1.6"/>
</g>
</svg>
